<?xml version="1.0" ?><!-- Uploaded to: SVG Repo, www.svgrepo.com, Generator: SVG Repo Mixer Tools -->
<svg fill="#000000" width="800px" height="800px" viewBox="0 0 96 96" id="Layer_1_1_" version="1.1" xml:space="preserve" xmlns="http://www.w3.org/2000/svg" xmlns:xlink="http://www.w3.org/1999/xlink"><rect height="4" width="4" x="77" y="62"/><rect height="4" width="4" x="65" y="62"/><rect height="4" width="4" x="59" y="62"/><rect height="4" width="4" x="71" y="62"/><path d="M91.926,59h-4.067c-0.166,0.639-0.482,1.214-0.914,1.687l2.901,2.594C90.959,62.107,91.706,60.632,91.926,59z"/><path d="M87.859,57h4.067c-0.226-1.677-1.01-3.189-2.174-4.378l-2.644,2.887C87.455,55.943,87.715,56.445,87.859,57z"/><rect height="2" width="26" x="57" y="57"/><path d="M83,50v4h1c0.533,0,1.039,0.109,1.505,0.298l2.69-2.937C86.823,50.502,85.17,50,83.391,50H83z"/><path d="M53.008,60.59C52.602,60.139,52.3,59.602,52.14,59h-4.063c0.217,1.594,0.954,3.023,2.045,4.169L53.008,60.59z"/><path d="M48.074,57h4.073c0.088-0.339,0.207-0.664,0.376-0.962l-2.704-2.952C48.889,54.194,48.271,55.536,48.074,57z"/><path d="M57,66v-4h-0.828c-0.505,0-0.995-0.093-1.453-0.258l-3.04,2.717c1.487,0.969,3.303,1.54,5.225,1.54H57z"/><path d="M56,54h1v-4h-0.391c-2.013,0-3.858,0.65-5.324,1.726l2.637,2.879C54.53,54.232,55.234,54,56,54z"/><path d="M88.292,64.573L85.19,61.8C84.811,61.918,84.417,62,84,62h-1v4h0.391C85.213,66,86.9,65.471,88.292,64.573z"/><rect height="4" width="4" x="65" y="50"/><rect height="4" width="4" x="71" y="50"/><rect height="4" width="4" x="77" y="50"/><rect height="4" width="4" x="59" y="50"/><path d="M52,14V8H40.188C40.701,8.884,41,9.907,41,11s-0.299,2.116-0.812,3H52z"/><path d="M29.93,20.31l3.52-3.52c-2.063-0.553-3.687-2.177-4.24-4.24l-3.52,3.52C27.891,16.378,29.622,18.109,29.93,20.31z"/><polygon points="4,94 14,94 15,90 3,90 "/><polygon points="21,94 31,94 32,90 20,90 "/><polygon points="38,94 48,94 49,90 37,90 "/><polygon points="65,94 66,90 54,90 55,94 "/><polygon points="83,90 71,90 72,94 82,94 "/><path d="M86,30V3c0-0.552-0.447-1-1-1H55c-0.553,0-1,0.448-1,1v27v18h32V30z M70,45c-2.761,0-5-2.239-5-5s2.239-5,5-5s5,2.239,5,5  S72.761,45,70,45z M84,30H56V4h28V30z"/><rect height="2" width="2" x="69" y="39"/><rect height="2" width="2" x="4" y="2"/><rect height="2" width="2" x="4" y="6"/><rect height="2" width="2" x="6" y="4"/><rect height="2" width="2" x="2" y="4"/><path d="M6,76c-1.66,0-3,1.34-3,3c0,0.77,0.3,1.47,0.78,2C3.3,81.53,3,82.23,3,83c0,0.93,0.43,1.75,1.09,2.3  C4.04,85.52,4,85.76,4,86c0,0.77,0.29,1.47,0.77,2h8.46c0.48-0.53,0.77-1.23,0.77-2c0-0.24-0.04-0.48-0.09-0.7  C14.57,84.75,15,83.93,15,83c0-0.77-0.3-1.47-0.78-2C14.7,80.47,15,79.77,15,79c0-1.66-1.34-3-3-3c0-2.21-1.34-4-3-4S6,73.79,6,76z   M11,83v2H9v-2H11z M9,81H7v-2h2V81z"/><path d="M29,76c0-2.21-1.34-4-3-4s-3,1.79-3,4c-1.66,0-3,1.34-3,3c0,0.77,0.3,1.47,0.78,2C20.3,81.53,20,82.23,20,83  c0,0.93,0.43,1.75,1.09,2.3C21.04,85.52,21,85.76,21,86c0,0.77,0.29,1.47,0.77,2h8.46c0.48-0.53,0.77-1.23,0.77-2  c0-0.24-0.04-0.48-0.09-0.7C31.57,84.75,32,83.93,32,83c0-0.77-0.3-1.47-0.78-2C31.7,80.47,32,79.77,32,79C32,77.34,30.66,76,29,76z   M26,85h-2v-2h2V85z M28,81h-2v-2h2V81z"/><path d="M37,79c0,0.77,0.3,1.47,0.78,2C37.3,81.53,37,82.23,37,83c0,0.93,0.43,1.75,1.09,2.3C38.04,85.52,38,85.76,38,86  c0,0.77,0.29,1.47,0.77,2h8.46c0.48-0.53,0.77-1.23,0.77-2c0-0.24-0.04-0.48-0.09-0.7C48.57,84.75,49,83.93,49,83  c0-0.77-0.3-1.47-0.78-2C48.7,80.47,49,79.77,49,79c0-1.66-1.34-3-3-3c0-2.21-1.34-4-3-4s-3,1.79-3,4C38.34,76,37,77.34,37,79z   M45,83v2h-2v-2H45z M41,79h2v2h-2V79z"/><path d="M57,76c-1.66,0-3,1.34-3,3c0,0.77,0.3,1.47,0.78,2C54.3,81.53,54,82.23,54,83c0,0.93,0.43,1.75,1.09,2.3  C55.04,85.52,55,85.76,55,86c0,0.77,0.29,1.47,0.77,2h8.46c0.48-0.53,0.77-1.23,0.77-2c0-0.24-0.04-0.48-0.09-0.7  C65.57,84.75,66,83.93,66,83c0-0.77-0.3-1.47-0.78-2C65.7,80.47,66,79.77,66,79c0-1.66-1.34-3-3-3c0-2.21-1.34-4-3-4S57,73.79,57,76  z M62,83v2h-2v-2H62z M59,78h2v2h-2V78z"/><path d="M80,76c0-2.21-1.34-4-3-4s-3,1.79-3,4c-1.66,0-3,1.34-3,3c0,0.77,0.3,1.47,0.78,2C71.3,81.53,71,82.23,71,83  c0,0.93,0.43,1.75,1.09,2.3C72.04,85.52,72,85.76,72,86c0,0.77,0.29,1.47,0.77,2h8.46c0.48-0.53,0.77-1.23,0.77-2  c0-0.24-0.04-0.48-0.09-0.7C82.57,84.75,83,83.93,83,83c0-0.77-0.3-1.47-0.78-2C82.7,80.47,83,79.77,83,79C83,77.34,81.66,76,80,76z   M75,78h2v2h-2V78z M79,85h-2v-2h2V85z"/><path d="M77.478,28.002c0.11-0.08,0.21-0.17,0.31-0.27c0.54-0.55,0.82-1.25,0.86-1.97c0.71-0.03,1.42-0.31,1.96-0.86  c1.18-1.17,1.18-3.07,0-4.24c1.57-1.56,1.89-3.78,0.71-4.95c-1.17-1.18-3.39-0.86-4.95,0.71c-1.02-1.029-2.595-1.159-3.757-0.394  c0.262,0.607,0.419,1.27,0.419,1.972c0,0.694-0.146,1.374-0.424,2c0.277,0.626,0.424,1.306,0.424,2c0,1.087-0.355,2.13-1,2.986  c0,0.004,0,0.009,0,0.014c0,1.094-0.375,2.137-1.03,3L77.478,28.002z M75.518,20.002h2v2h-2V20.002z"/><path d="M60.09,25.3C60.04,25.52,60,25.76,60,26c0,0.77,0.29,1.47,0.77,2h8.46c0.48-0.53,0.77-1.23,0.77-2  c0-0.24-0.04-0.48-0.09-0.7C70.57,24.75,71,23.93,71,23c0-0.77-0.3-1.47-0.78-2C70.7,20.47,71,19.77,71,19c0-1.66-1.34-3-3-3  c0-2.21-1.34-4-3-4s-3,1.79-3,4c-1.66,0-3,1.34-3,3c0,0.77,0.3,1.47,0.78,2C59.3,21.53,59,22.23,59,23  C59,23.93,59.43,24.75,60.09,25.3z M67,22v2h-2v-2H67z M63,17h2v2h-2V17z"/><circle cx="35" cy="11" r="4"/><path d="M19,41v-5l2-3h8l2,3v5l-4,6l8-5v-8l-4-5h-4v-3.424C26.386,25.846,25.712,26,25,26s-1.386-0.154-2-0.424V29h-4l-4,5v8l8,5  L19,41z"/><circle cx="25" cy="21" r="3"/></svg>