<?xml version="1.0" ?><!-- Uploaded to: SVG Repo, www.svgrepo.com, Generator: SVG Repo Mixer Tools -->
<svg fill="#000000" width="800px" height="800px" viewBox="0 0 96 96" id="Layer_1_1_" version="1.1" xml:space="preserve" xmlns="http://www.w3.org/2000/svg" xmlns:xlink="http://www.w3.org/1999/xlink"><polygon points="43,20 54,27 69,2 54,2 "/><path d="M35,19l-6,9l4.773,3.037l-1.512,2.268l-7.706-5.138c-0.462-0.307-1.082-0.183-1.387,0.277l-2,3l1.664,1.109l1.445-2.168  l1.336,0.891l-1.445,2.168l1.664,1.109l1.445-2.168l1.336,0.891l-1.445,2.168l1.664,1.109l1.445-2.168l1.336,0.891l-1.445,2.168  l1.664,1.109l1.445-2.168l1.336,0.891l-1.445,2.168l1.664,1.109l1.445-2.168l1.336,0.891l-1.445,2.168l1.664,1.109l1.445-2.168  l1.336,0.891l-1.445,2.168l1.664,1.109l2-3c0.307-0.459,0.183-1.081-0.277-1.387l-8.63-5.753l1.527-2.29l-0.614-0.409L40,35l6-9  L35,19z M37.5,29c-1.105,0-2-0.895-2-2c0-1.105,0.895-2,2-2s2,0.895,2,2C39.5,28.105,38.605,29,37.5,29z"/><path d="M68.021,71l-0.041,2L71,73.061V75h-3v2h3v2h-3v2h3v2h-3v2h3v2h-3v2h3v2h-3v2h4c0.553,0,1-0.448,1-1V80.949l2,0.034V87h12V74  H75v4.982l-2-0.034V68c0-0.552-0.447-1-1-1h-4v2h3v2.06L68.021,71z M79.929,78.311c0.933-0.591,2.169-0.314,2.76,0.619  s0.314,2.169-0.619,2.76c-0.933,0.591-2.169,0.314-2.76-0.619S78.996,78.902,79.929,78.311z"/><rect height="2" width="2" x="49" y="73"/><rect height="2" width="2" x="54" y="73"/><rect height="2" width="2" x="52" y="69"/><rect height="2" width="2" x="57" y="69"/><rect height="2" width="2" x="59" y="73"/><rect height="2" width="2" x="62" y="69"/><rect height="2" width="2" x="83" y="48"/><rect height="2" width="2" x="88" y="48"/><rect height="2" width="2" x="86" y="44"/><rect height="2" width="2" x="91" y="44"/><rect height="2" width="2" x="68" y="48"/><rect height="2" width="2" x="73" y="48"/><rect height="2" width="2" x="71" y="44"/><rect height="2" width="2" x="76" y="44"/><rect height="2" width="2" x="63" y="48"/><rect height="2" width="2" x="66" y="44"/><rect height="2" width="2" x="78" y="48"/><rect height="2" width="2" x="81" y="44"/><rect height="2" width="2" x="83" y="24"/><rect height="2" width="2" x="88" y="24"/><rect height="2" width="2" x="86" y="20"/><rect height="2" width="2" x="91" y="20"/><rect height="2" width="2" x="78" y="24"/><rect height="2" width="2" x="81" y="20"/><path d="M2,2v12L9,2H2z M3,7V5h2v2H3z"/><rect height="2" width="2" x="12" y="3"/><rect height="2" width="2" x="17" y="3"/><rect height="2" width="2" x="9" y="8"/><rect height="2" width="2" x="14" y="8"/><rect height="2" width="2" x="5" y="13"/><rect height="2" width="2" x="10" y="13"/><rect height="2" width="2" x="2" y="18"/><rect height="2" width="2" x="7" y="18"/><path d="M3,54L39,2H24L3,33V54z M29,8h2v2h-2V8z M27,15h-2v-2h2V15z M24,8h2v2h-2V8z M24,20h-2v-2h2V20z M20,13h2v2h-2V13z M20,25  h-2v-2h2V25z M17,18h2v2h-2V18z M17,30h-2v-2h2V30z M13,23h2v2h-2V23z M13,35h-2v-2h2V35z M10,28h2v2h-2V28z M10,40H8v-2h2V40z   M6,33h2v2H6V33z"/><rect height="2" width="2" x="18" y="38"/><rect height="2" width="2" x="23" y="38"/><rect height="2" width="2" x="15" y="43"/><rect height="2" width="2" x="20" y="43"/><rect height="2" width="2" x="12" y="49"/><rect height="2" width="2" x="17" y="48"/><rect height="2" width="2" x="8" y="54"/><rect height="2" width="2" x="13" y="54"/><rect height="2" width="2" x="4" y="59"/><rect height="2" width="2" x="5" y="65"/><rect height="2" width="2" x="9" y="59"/><rect height="2" width="2" x="46" y="48"/><rect height="2" width="2" x="51" y="48"/><rect height="2" width="2" x="42" y="54"/><rect height="2" width="2" x="47" y="54"/><rect height="2" width="2" x="38" y="60"/><rect height="2" width="2" x="43" y="60"/><rect height="2" width="2" x="34" y="65"/><rect height="2" width="2" x="39" y="65"/><rect height="2" width="2" x="61" y="24"/><rect height="2" width="2" x="66" y="24"/><rect height="2" width="2" x="57" y="30"/><rect height="2" width="2" x="62" y="30"/><rect height="2" width="2" x="53" y="36"/><rect height="2" width="2" x="58" y="36"/><rect height="2" width="2" x="49" y="42"/><rect height="2" width="2" x="54" y="42"/><rect height="2" width="2" x="72" y="5"/><rect height="2" width="2" x="77" y="5"/><rect height="2" width="2" x="68" y="12"/><rect height="2" width="2" x="73" y="12"/><rect height="2" width="2" x="65" y="18"/><rect height="2" width="2" x="70" y="18"/><rect height="2" width="2" x="31" y="70"/><rect height="2" width="2" x="36" y="70"/><rect height="2" width="2" x="28" y="75"/><rect height="2" width="2" x="33" y="75"/><rect height="2" width="2" x="30" y="80"/><rect height="2" width="2" x="24" y="80"/><rect height="2" width="2" x="26" y="85"/><rect height="2" width="2" x="20" y="85"/><rect height="2" width="2" x="22" y="90"/><path d="M29.171,40L3,79v14h8l29.844-45L29.171,40z M30,45h2v2h-2V45z M20,60h2v2h-2V60z M17,65h2v2h-2V65z M6,80h2v2H6V80z M10,87  H8v-2h2V87z M10,77v-2h2v2H10z M14,82h-2v-2h2V82z M14,70h2v2h-2V70z M18,77h-2v-2h2V77z M21,72h-2v-2h2V72z M24,67h-2v-2h2V67z   M24,55h2v2h-2V55z M27,62h-2v-2h2V62z M27,50h2v2h-2V50z M31,57h-2v-2h2V57z M32,52v-2h2v2H32z"/><rect height="2" width="2" x="3" y="23"/><polygon points="89,89 75,89 75,93 89,93 94,93 94,89 94,80 89,80 "/><path d="M85.162,1.454l-58,91l1.676,1.092L30.461,91H66V79H38.109l8.923-14H94V53H54.68l7.648-12H94V28H70.614l7.011-11H94V2h-8  L85.162,1.454z M62,82h2v2h-2V82z M61,88h-2v-2h2V88z M57,82h2v2h-2V82z M56,88h-2v-2h2V88z M52,82h2v2h-2V82z M51,88h-2v-2h2V88z   M47,82h2v2h-2V82z M46,88h-2v-2h2V88z M42,82h2v2h-2V82z M39,86h2v2h-2V86z M88,60h2v2h-2V60z M85,56h2v2h-2V56z M84,62h-2v-2h2V62  z M80,56h2v2h-2V56z M79,62h-2v-2h2V62z M75,56h2v2h-2V56z M74,62h-2v-2h2V62z M70,56h2v2h-2V56z M69,62h-2v-2h2V62z M65,56h2v2h-2  V56z M64,62h-2v-2h2V62z M60,56h2v2h-2V56z M57,60h2v2h-2V60z M91,38h-2v-2h2V38z M87,32h2v2h-2V32z M86,38h-2v-2h2V38z M82,32h2v2  h-2V32z M81,38h-2v-2h2V38z M77,32h2v2h-2V32z M76,38h-2v-2h2V38z M72,32h2v2h-2V32z M71,38h-2v-2h2V38z M93,14h-2v-2h2V14z M91,5h2  v2h-2V5z M89,8h2v2h-2V8z M88,14h-2v-2h2V14z"/></svg>