<?xml version="1.0" ?><!-- Uploaded to: SVG Repo, www.svgrepo.com, Generator: SVG Repo Mixer Tools -->
<svg fill="#000000" width="800px" height="800px" viewBox="0 0 96 96" id="Layer_1_1_" version="1.1" xml:space="preserve" xmlns="http://www.w3.org/2000/svg" xmlns:xlink="http://www.w3.org/1999/xlink"><circle cx="48" cy="13" r="5"/><rect height="3" width="2" x="47" y="2"/><rect height="3" width="2" x="47" y="21"/><rect height="2" width="3" x="56" y="12"/><rect height="2" width="3" x="37" y="12"/><rect height="2" transform="matrix(0.7071 -0.7071 0.7071 0.7071 11.5841 40.5314)" width="3" x="53.218" y="5.283"/><rect height="2" transform="matrix(0.7071 -0.7071 0.7071 0.7071 -1.8511 34.9661)" width="3" x="39.782" y="18.718"/><rect height="3" transform="matrix(0.7071 -0.7071 0.7071 0.7071 2.0841 44.4664)" width="2" x="53.718" y="18.218"/><rect height="3" transform="matrix(0.7072 -0.707 0.707 0.7072 7.6461 31.0272)" width="2" x="40.282" y="4.782"/><path d="M11,21h11c2.209,0,4-1.791,4-4c0-2.209-1.791-4-4-4c-0.353,0-0.689,0.06-1.015,0.146C20.987,13.096,21,13.05,21,13  c0-2.761-2.239-5-5-5s-5,2.239-5,5c-2.209,0-4,1.791-4,4C7,19.209,8.791,21,11,21z"/><path d="M76,25h11c2.209,0,4-1.791,4-4c0-2.209-1.791-4-4-4c0-2.761-2.239-5-5-5s-5,2.239-5,5c0,0.05,0.013,0.096,0.015,0.146  C76.689,17.06,76.353,17,76,17c-2.209,0-4,1.791-4,4C72,23.209,73.791,25,76,25z"/><polygon points="47,48 47,33 29.295,33 23.461,48 "/><polygon points="49,48 72.539,48 66.705,33 49,33 "/><polygon points="27.15,33 18,33 3.938,48 21.316,48 "/><path d="M13,87.91c-2.837-0.477-5-2.938-5-5.91c2.088,0,3.925,1.068,5,2.686V79.91c-2.837-0.477-5-2.938-5-5.91  c2.088,0,3.925,1.068,5,2.686v-2.87c-1.163-0.413-2-1.512-2-2.816c0-1.657,1.343-3,3-3s3,1.343,3,3c0,1.304-0.837,2.403-2,2.816  v2.87C16.075,75.068,17.912,74,20,74c0,2.972-2.163,5.433-5,5.91v4.776C16.075,83.068,17.912,82,20,82c0,2.972-2.163,5.433-5,5.91  V94h15v-6.09c-2.837-0.477-5-2.938-5-5.91c2.088,0,3.925,1.068,5,2.686V79.91c-2.837-0.477-5-2.938-5-5.91  c2.088,0,3.925,1.068,5,2.686v-2.87c-1.163-0.413-2-1.512-2-2.816c0-1.657,1.343-3,3-3s3,1.343,3,3c0,1.304-0.837,2.403-2,2.816  v2.87C33.075,75.068,34.912,74,37,74c0,2.972-2.163,5.433-5,5.91v4.776C33.075,83.068,34.912,82,37,82c0,2.972-2.163,5.433-5,5.91  V94h10V77h12v17h10v-6.09c-2.837-0.477-5-2.938-5-5.91c2.088,0,3.925,1.068,5,2.686V79.91c-2.837-0.477-5-2.938-5-5.91  c2.088,0,3.925,1.068,5,2.686v-2.87c-1.163-0.413-2-1.512-2-2.816c0-1.657,1.343-3,3-3s3,1.343,3,3c0,1.304-0.837,2.403-2,2.816  v2.87C67.075,75.068,68.912,74,71,74c0,2.972-2.163,5.433-5,5.91v4.776C67.075,83.068,68.912,82,71,82c0,2.972-2.163,5.433-5,5.91  V94h15v-6.09c-2.837-0.477-5-2.938-5-5.91c2.088,0,3.925,1.068,5,2.686V79.91c-2.837-0.477-5-2.938-5-5.91  c2.088,0,3.925,1.068,5,2.686v-2.87c-1.163-0.413-2-1.512-2-2.816c0-1.657,1.343-3,3-3s3,1.343,3,3c0,1.304-0.837,2.403-2,2.816  v2.87C84.075,75.068,85.912,74,88,74c0,2.972-2.163,5.433-5,5.91v4.776C84.075,83.068,85.912,82,88,82c0,2.972-2.163,5.433-5,5.91  V94h10V50H77v2h1v2h-4v-2h1v-2H51.859c-0.446,1.722-1.997,3-3.859,3s-3.412-1.278-3.859-3H21v2h1v2h-4v-2h1v-2H3v44h10V87.91z   M79,57h2v2h-2V57z M79,61h2v2h-2V61z M75,56h2v2h-2V56z M75,60h2v2h-2V60z M71,57h2v2h-2V57z M71,61h2v2h-2V61z M55,51h3v2h-3V51z   M53.586,54.293l2.121,2.121l-1.414,1.414l-2.121-2.121L53.586,54.293z M47,56h2v3h-2V56z M43.707,55.707l-2.121,2.121l-1.414-1.414  l2.121-2.121L43.707,55.707z M38,51h3v2h-3V51z M23,57h2v2h-2V57z M23,61h2v2h-2V61z M19,56h2v2h-2V56z M19,60h2v2h-2V60z M15,57h2  v2h-2V57z M15,61h2v2h-2V61z"/><polygon points="92.062,48 78,33 68.85,33 74.684,48 "/><rect height="2" width="2" x="45" y="83"/></svg>