<?xml version="1.0" ?><!-- Uploaded to: SVG Repo, www.svgrepo.com, Generator: SVG Repo Mixer Tools -->
<svg fill="#000000" width="800px" height="800px" viewBox="0 0 96 96" id="Layer_1_1_" version="1.1" xml:space="preserve" xmlns="http://www.w3.org/2000/svg" xmlns:xlink="http://www.w3.org/1999/xlink"><circle cx="12" cy="12" r="5"/><rect height="3" width="2" x="11" y="2"/><rect height="3" width="2" x="11" y="19"/><rect height="2" width="3" x="19" y="11"/><rect height="2" width="3" x="2" y="11"/><rect height="2" transform="matrix(0.7071 -0.7071 0.7071 0.7071 1.0402 14.4897)" width="3" x="16.511" y="4.989"/><rect height="2" transform="matrix(0.7071 -0.7071 0.7071 0.7071 -10.9813 9.5103)" width="3" x="4.489" y="17.011"/><rect height="3" transform="matrix(0.7071 -0.7071 0.7071 0.7071 -7.4603 18.0107)" width="2" x="17.011" y="16.511"/><rect height="3" transform="matrix(0.7071 -0.7071 0.7071 0.7071 -2.4808 5.9893)" width="2" x="4.989" y="4.489"/><rect height="6" width="7" x="66" y="69"/><rect height="6" width="7" x="83" y="69"/><rect height="9" width="5" x="67" y="77"/><rect height="9" width="5" x="84" y="77"/><rect height="6" width="12" x="62" y="88"/><rect height="6" width="12" x="82" y="88"/><rect height="9" width="4" x="56" y="43"/><path d="M35,22l9.004,5.73H44v5.62c0.627-0.223,1.298-0.35,2-0.35s1.373,0.128,2,0.35v-5.62h-0.004L57,22l-1-6l-5,2l1,3l-5,2h-2  l-5-2l1-3l-5-2L35,22z"/><path d="M47,19v-8.069c3.945-0.493,7-3.852,7-7.931c-4.079,0-7.438,3.055-7.931,7h-0.138C45.438,6.055,42.079,3,38,3  c0,4.079,3.055,7.438,7,7.931V19H47z"/><path d="M9,83.931V90H6l-3,4h54l-3-4h-3v-6.069c3.945-0.493,7-3.852,7-7.931c-4.079,0-7.438,3.055-7.931,7h-0.138  c-0.493-3.945-3.852-7-7.931-7c0,4.079,3.055,7.438,7,7.931V90H31v-6.069c3.945-0.493,7-3.852,7-7.931c-4.079,0-7.438,3.055-7.931,7  h-0.138c-0.493-3.945-3.852-7-7.931-7c0,4.079,3.055,7.438,7,7.931V90H11v-6.069c3.945-0.493,7-3.852,7-7.931  c-4.079,0-7.438,3.055-7.931,7H9.931C9.438,79.055,6.079,76,2,76C2,80.079,5.055,83.438,9,83.931z"/><path d="M67,24v13h22V24H79v-4.184c1.163-0.413,2-1.512,2-2.816c0-1.657-1.343-3-3-3s-3,1.343-3,3c0,1.304,0.837,2.403,2,2.816V24  H67z M70,27h4v2h-4V27z M82,27h4v2h-4V27z M82,34h-8v-2h8V34z"/><path d="M62,67h32V39H62V67z M69,44h18v18H69V44z"/><circle cx="78" cy="53" r="6"/><circle cx="46" cy="39" r="4"/><path d="M54,45l-2.883-2.883c-0.76,1.243-1.955,2.192-3.377,2.623L54,51V45z"/></svg>